<svg xmlns="http://www.w3.org/2000/svg" width="1200" height="630" viewBox="0 0 1200 630">
  <defs>
    <linearGradient id="bgGradient" x1="0%" y1="0%" x2="100%" y2="100%">
      <stop offset="0%" style="stop-color:#064e3b;stop-opacity:1" />
      <stop offset="50%" style="stop-color:#065f46;stop-opacity:1" />
      <stop offset="100%" style="stop-color:#047857;stop-opacity:1" />
    </linearGradient>
    <linearGradient id="accentGradient" x1="0%" y1="0%" x2="100%" y2="0%">
      <stop offset="0%" style="stop-color:#10b981;stop-opacity:1" />
      <stop offset="100%" style="stop-color:#34d399;stop-opacity:1" />
    </linearGradient>
    <pattern id="gridPattern" width="60" height="60" patternUnits="userSpaceOnUse">
      <path d="M 60 0 L 0 0 0 60" fill="none" stroke="#ffffff" stroke-width="0.5" opacity="0.05" />
    </pattern>
  </defs>
  
  <!-- Background -->
  <rect width="1200" height="630" fill="url(#bgGradient)" />
  
  <!-- Grid Pattern -->
  <rect width="1200" height="630" fill="url(#gridPattern)" />
  
  <!-- Decorative Circles -->
  <circle cx="-100" cy="630" r="400" fill="#10b981" opacity="0.1" />
  <circle cx="1300" cy="0" r="350" fill="#10b981" opacity="0.08" />
  <circle cx="1100" cy="500" r="200" fill="#10b981" opacity="0.05" />
  
  <!-- Top Accent Bar -->
  <rect x="0" y="0" width="1200" height="8" fill="url(#accentGradient)" />
  
  <!-- Main Content Area -->
  <g transform="translate(80, 150)">
    <!-- Logo Placeholder Circle -->
    <circle cx="100" cy="100" r="80" fill="#ffffff" opacity="0.1" />
    <circle cx="100" cy="100" r="70" fill="#ffffff" opacity="0.15" />
    
    <!-- Payment Icon inside circle -->
    <g transform="translate(55, 55)">
      <rect x="0" y="20" width="90" height="60" rx="8" fill="#ffffff" opacity="0.9" />
      <rect x="0" y="32" width="90" height="12" fill="#10b981" opacity="0.8" />
      <rect x="10" y="52" width="18" height="12" rx="2" fill="#fbbf24" />
    </g>
    
    <!-- Text Content -->
    <text x="220" y="80" fill="#ffffff" font-family="Arial, sans-serif" font-size="48" font-weight="bold">
      ุจูุงุจุฉ ุงูุฏูุน
    </text>
    <text x="220" y="130" fill="#d1fae5" font-family="Arial, sans-serif" font-size="24" opacity="0.9">
      Payment Gateway Provider
    </text>
    
    <!-- Decorative Line -->
    <rect x="220" y="150" width="200" height="4" rx="2" fill="url(#accentGradient)" />
  </g>
  
  <!-- Bottom Info Bar -->
  <rect x="0" y="560" width="1200" height="70" fill="#000000" opacity="0.2" />
  
  <!-- Website URL -->
  <text x="80" y="605" fill="#ffffff" font-family="Arial, sans-serif" font-size="20" opacity="0.8">
    PayGate Optimizer - ุงุฎุชุฑ ุจูุงุจุฉ ุงูุฏูุน ุงูููุงุณุจุฉ
  </text>
  
  <!-- Features Icons -->
  <g transform="translate(900, 580)">
    <circle cx="0" cy="20" r="15" fill="#10b981" opacity="0.8" />
    <text x="0" y="25" fill="#ffffff" font-family="Arial, sans-serif" font-size="14" text-anchor="middle">โ</text>
    
    <circle cx="50" cy="20" r="15" fill="#10b981" opacity="0.8" />
    <text x="50" y="25" fill="#ffffff" font-family="Arial, sans-serif" font-size="14" text-anchor="middle">โก</text>
    
    <circle cx="100" cy="20" r="15" fill="#10b981" opacity="0.8" />
    <text x="100" y="25" fill="#ffffff" font-family="Arial, sans-serif" font-size="14" text-anchor="middle">๐</text>
  </g>
  
  <!-- Floating Elements -->
  <circle cx="950" cy="200" r="8" fill="#34d399" opacity="0.6" />
  <circle cx="1050" cy="280" r="5" fill="#34d399" opacity="0.4" />
  <circle cx="900" cy="350" r="6" fill="#34d399" opacity="0.5" />
  <circle cx="1100" cy="150" r="10" fill="#34d399" opacity="0.3" />
  
  <!-- Card Stack Decoration -->
  <g transform="translate(850, 180)">
    <rect x="0" y="0" width="250" height="150" rx="12" fill="#ffffff" opacity="0.08" transform="rotate(-5)" />
    <rect x="20" y="10" width="250" height="150" rx="12" fill="#ffffff" opacity="0.12" transform="rotate(0)" />
    <rect x="40" y="20" width="250" height="150" rx="12" fill="#ffffff" opacity="0.15" transform="rotate(5)" />
  </g>
</svg>
